@startuml
'https://plantuml.com/class-diagram

abstract class AbstractList
abstract AbstractCollection

interface Collection

GameManager <|-- AbstractList
Collection <|-- AbstractCollection

Collection <|- List
AbstractCollection <|- AbstractList
AbstractList <|-- ArrayList

class ArrayList {
Object[] elementData
size()
}

enum Teams {
Blue
Red
None
}

@enduml